<?xml version="1.0" encoding="UTF-8"?> <svg xmlns="http://www.w3.org/2000/svg" xmlns:xlink="http://www.w3.org/1999/xlink" version="1.1" id="Component_26_1" x="0px" y="0px" width="121px" height="111.19px" viewBox="0 0 121 111.19" xml:space="preserve"> <path id="Path_989" fill="#E64A40" d="M82.105,75.104c-1.301,0-2.355,1.055-2.355,2.355s1.054,2.355,2.355,2.355h24.445 c1.109,0,2.068-0.774,2.302-1.859l11.661-54.013c0.274-1.271-0.534-2.524-1.805-2.798c-0.163-0.036-0.33-0.053-0.497-0.053H92.274 C91.496,13.506,87.012,6.8,80.299,3.184c-1.145-0.617-2.573-0.19-3.19,0.954c-0.618,1.145-0.191,2.573,0.954,3.191l0,0 c8.897,4.794,12.224,15.894,7.429,24.792C80.698,41.019,69.598,44.345,60.7,39.55c-8.897-4.794-12.224-15.894-7.43-24.792 c1.9-3.526,4.905-6.332,8.553-7.986c1.179-0.549,1.689-1.951,1.14-3.129c-0.542-1.164-1.915-1.679-3.088-1.159 c-7.442,3.394-12.532,10.472-13.381,18.607H29.061L24.908,1.858C24.675,0.774,23.716,0,22.607,0H2.354C1.054,0,0,1.054,0,2.354 c0,1.301,1.054,2.355,2.354,2.355h18.352l4.153,19.233L36.52,77.955v0.003l2.017,9.347c-6.21,2.671-9.079,9.871-6.408,16.082 c2.671,6.21,9.871,9.079,16.082,6.408c3.713-1.597,6.398-4.924,7.175-8.891h34.599c1.301,6.635,7.733,10.958,14.368,9.658 s10.958-7.733,9.658-14.368c-1.3-6.634-7.732-10.958-14.367-9.658c-4.883,0.958-8.7,4.775-9.658,9.658H55.386 c-1.133-5.739-6.163-9.878-12.012-9.886c-0.079,0-0.156,0.004-0.233,0.005l-1.404-6.501h21.529c1.301,0,2.354-1.054,2.354-2.354 c0-1.301-1.054-2.355-2.354-2.355l0,0H40.722L30.078,25.8h16.413c1.303,12.645,12.611,21.838,25.255,20.535 c4.457-0.459,8.683-2.21,12.159-5.037L96.93,54.323c0.913,0.926,2.403,0.937,3.33,0.023c0.926-0.913,0.937-2.404,0.023-3.33 c-0.008-0.008-0.015-0.015-0.023-0.023L87.236,37.968c2.839-3.471,4.591-7.704,5.035-12.167h23.023L104.65,75.104H82.105 L82.105,75.104z M101.997,91.018c4.16,0,7.532,3.372,7.533,7.532c0,4.16-3.372,7.533-7.532,7.533c-4.159,0-7.532-3.372-7.532-7.532 c0,0,0,0,0-0.001C94.471,94.392,97.839,91.023,101.997,91.018z M50.907,98.546v0.003c0,0,0,0.002,0,0.004 c-0.002,4.16-3.375,7.531-7.536,7.529c-4.16-0.001-7.531-3.375-7.529-7.536c0.001-4.16,3.375-7.531,7.535-7.529 C47.536,91.019,50.905,94.389,50.907,98.546z"></path> <path id="Path_990" fill="#E64A40" d="M69.383,5.144c1.301,0,2.354-1.054,2.354-2.354c0-1.301-1.054-2.355-2.354-2.355 c-1.3,0-2.354,1.054-2.354,2.354C67.03,4.088,68.083,5.141,69.383,5.144z"></path> <path id="Path_991" fill="#E64A40" d="M70.331,77.459c0,1.3,1.054,2.355,2.355,2.355c1.3,0,2.354-1.055,2.354-2.355 s-1.054-2.355-2.354-2.355C71.387,75.107,70.334,76.16,70.331,77.459z"></path> </svg> 