<?xml version="1.0" encoding="UTF-8"?> <svg xmlns="http://www.w3.org/2000/svg" id="Component_30_1" data-name="Component 30 – 1" width="106" height="106" viewBox="0 0 106 106"><g id="Component_29_2" data-name="Component 29 – 2" transform="translate(21 18)"><path id="Path_160" data-name="Path 160" d="M67.3,27.188c0,.531-.027,1.056-.076,1.574l-5.8-4.6a11.03,11.03,0,0,0-21.616,3.022,10.876,10.876,0,0,0,2.858,7.352V41.4A16.4,16.4,0,1,1,67.3,27.188ZM42.664,47.4A21.836,21.836,0,1,1,72.055,32.6l4.573,3.626a26.919,26.919,0,0,0,1.554-9.033,27.354,27.354,0,1,0-35.519,25.95V47.4Zm20.393,3.869H86.876L48.108,20.531V69.378Zm8.264-5.41H60.482l-6.931,8.4V31.767Z" transform="translate(-23.476)" fill="#42c0fb" stroke="#fff" stroke-width="1"></path></g><g id="Ellipse_1" data-name="Ellipse 1" fill="none" stroke="#42c0fb" stroke-width="5"><circle cx="53" cy="53" r="53" stroke="none"></circle><circle cx="53" cy="53" r="50.5" fill="none"></circle></g></svg> 