<?xml version="1.0" encoding="UTF-8"?> <svg xmlns="http://www.w3.org/2000/svg" xmlns:xlink="http://www.w3.org/1999/xlink" width="505.551" height="551.011" viewBox="0 0 505.551 551.011"><defs><style>.a,.b{fill:#fff;}.a{stroke:#ec6737;stroke-width:2px;}.c{fill:#ec6737;}.d{filter:url(#a);}</style><filter id="a" x="0" y="0" width="505.551" height="551.011" filterUnits="userSpaceOnUse"><feOffset dy="12"></feOffset><feGaussianBlur stdDeviation="15" result="b"></feGaussianBlur><feFlood flood-opacity="0.161"></feFlood><feComposite operator="in" in2="b"></feComposite><feComposite in="SourceGraphic"></feComposite></filter></defs><g transform="translate(23 7)"><path class="a" d="M502.993,222.293,408.688,58.951a67.58,67.58,0,0,0-58.382-33.707H161.694a67.58,67.58,0,0,0-58.382,33.707L9.007,222.293a67.575,67.575,0,0,0,0,67.414l94.306,163.342A67.58,67.58,0,0,0,161.7,486.756H350.306a67.58,67.58,0,0,0,58.382-33.707l94.306-163.342a67.578,67.578,0,0,0,0-67.414Z" transform="translate(486.756) rotate(90)"></path><g class="d" transform="matrix(1, 0, 0, 1, -23, -7)"><path class="b" d="M452.9,202.669,367.987,55.594a60.85,60.85,0,0,0-52.568-30.35H145.591a60.85,60.85,0,0,0-52.568,30.35L8.11,202.669a60.845,60.845,0,0,0,0,60.7L93.024,410.444a60.85,60.85,0,0,0,52.568,30.35H315.419a60.85,60.85,0,0,0,52.568-30.35L452.9,263.37a60.848,60.848,0,0,0,0-60.7Z" transform="translate(485.79 33) rotate(90)"></path></g><path class="c" d="M144.852,90.67V262.862l-16.933,10.349-16.946-10.4V90.8L67.1,117.819V265.074l60.824,37.217,61.339-37.482V117.725ZM127.919,0,0,77.5V224.776l33.223,19.572V97.06l94.722-57.6,94.81,57.512.391.223L223.1,244.128,256,224.776V77.5Z" transform="translate(102 105)"></path></g></svg> 