<?xml version="1.0" encoding="UTF-8"?> <svg xmlns="http://www.w3.org/2000/svg" xmlns:xlink="http://www.w3.org/1999/xlink" width="505.551" height="551.011" viewBox="0 0 505.551 551.011"><defs><style>.a,.b{fill:#fff;}.a{stroke:#8db849;stroke-width:2px;}.c{fill:#8db849;}.d{fill:#5a863e;}.e{fill:#fffffe;}.f{filter:url(#a);}</style><filter id="a" x="0" y="0" width="505.551" height="551.011" filterUnits="userSpaceOnUse"><feOffset dy="12"></feOffset><feGaussianBlur stdDeviation="15" result="b"></feGaussianBlur><feFlood flood-opacity="0.161"></feFlood><feComposite operator="in" in2="b"></feComposite><feComposite in="SourceGraphic"></feComposite></filter></defs><g transform="translate(23 7)"><path class="a" d="M502.993,222.293,408.688,58.951a67.58,67.58,0,0,0-58.382-33.707H161.694a67.58,67.58,0,0,0-58.382,33.707L9.007,222.293a67.575,67.575,0,0,0,0,67.414l94.306,163.342A67.58,67.58,0,0,0,161.7,486.756H350.306a67.58,67.58,0,0,0,58.382-33.707l94.306-163.342a67.578,67.578,0,0,0,0-67.414Z" transform="translate(486.756) rotate(90)"></path><g class="f" transform="matrix(1, 0, 0, 1, -23, -7)"><path class="b" d="M452.9,202.669,367.987,55.594a60.85,60.85,0,0,0-52.568-30.35H145.591a60.85,60.85,0,0,0-52.568,30.35L8.11,202.669a60.845,60.845,0,0,0,0,60.7L93.024,410.444a60.85,60.85,0,0,0,52.568,30.35H315.419a60.85,60.85,0,0,0,52.568-30.35L452.9,263.37a60.848,60.848,0,0,0,0-60.7Z" transform="translate(485.79 33) rotate(90)"></path></g><g transform="translate(108 117)"><path class="c" d="M113.136,1000.814c2,0,3,1,5.006,2-12.014,5.006-24.029,18.022-30.036,46.055l-22.026,6.007C73.088,1034.855,87.1,1000.814,113.136,1000.814Zm11.013,10.012a69.811,69.811,0,0,1,4,24.029v2l-29.035,8.01C105.126,1023.842,115.138,1014.83,124.149,1010.826Zm26.031,18.021-13.016,4v-3c0-9.011-1-16.019-3-22.026C141.169,1009.825,147.176,1018.836,150.18,1028.848Zm65.078,16.019a2.153,2.153,0,0,0-2-2c-2,0-23.027-2-23.027-2s-15.018-15.018-17.02-16.019c-2-2-5.006-1-6.006-1,0,0-3,1-8.01,3-5.006-14.017-14.017-27.033-29.035-27.033h-1a17.707,17.707,0,0,0-15.018-8.01c-36.043-1-53.064,44.054-59.071,67.08-8.01,2-16.019,5.006-25.03,8.01-8.01,2-8.01,3-9.011,10.012C20.024,1081.911,0,1240.1,0,1240.1l159.191,30.036,86.1-19.023s-30.036-204.243-30.036-206.246Z" transform="translate(0 -991.787)"></path><path class="d" d="M877.32,1176.783c-1,0-22.026-2-22.026-2s-15.018-15.018-17.02-16.019c-1-1-1-1-2-1l-12.014,246.3,86.1-19.023s-30.036-204.245-30.036-206.247c0-1-2-2-3-2" transform="translate(-665.065 -1125.705)"></path><path class="e" d="M284.923,1487.8l-11.012,32.038a47.473,47.473,0,0,0-21.025-5.006c-17.02,0-18.022,10.012-18.022,13.016,0,14.017,38.046,20.024,38.046,54.065,0,27.032-17.02,44.053-40.048,44.053-27.032,0-41.049-17.02-41.049-17.02l7.008-24.029s14.017,12.015,26.031,12.015c8.01,0,11.013-6.007,11.013-11.013,0-19.023-31.036-20.024-31.036-51.061,0-26.031,19.024-51.061,56.066-51.061,17.02-1,24.029,4,24.029,4" transform="translate(-154.767 -1388.668)"></path></g></g></svg> 