<?xml version="1.0" encoding="UTF-8"?> <svg xmlns="http://www.w3.org/2000/svg" xmlns:xlink="http://www.w3.org/1999/xlink" version="1.1" id="Layer_1" x="0px" y="0px" width="40px" height="40px" viewBox="0 0 40 40" xml:space="preserve"> <g> <g> <path fill="#E22718" d="M24.21,14.829c-0.43,0-0.776,0.349-0.776,0.777c0,0.428,0.347,0.777,0.776,0.777 c0.431,0,0.777-0.349,0.777-0.777C24.987,15.178,24.641,14.829,24.21,14.829z"></path> </g> </g> <g> <g> <path fill="#E22415" d="M38.999,34.546L28.623,24.173c1.689-2.545,2.581-5.493,2.581-8.566c0-8.57-6.971-15.542-15.542-15.542 c-8.569,0-15.542,6.972-15.542,15.542c0,8.57,6.973,15.542,15.542,15.542c3.074,0,6.02-0.892,8.567-2.58l2.866,2.866l0.002,0.002 l7.505,7.505c0.584,0.587,1.366,0.91,2.194,0.91c0.832,0,1.613-0.323,2.198-0.91c0.589-0.587,0.911-1.368,0.911-2.199 C39.906,35.913,39.584,35.131,38.999,34.546z M23.863,26.932L23.863,26.932c-2.397,1.742-5.235,2.663-8.201,2.663 c-7.714,0-13.988-6.275-13.988-13.988S7.949,1.619,15.663,1.619c7.713,0,13.987,6.274,13.987,13.987 c0,2.966-0.919,5.803-2.662,8.201C26.116,25.009,25.065,26.06,23.863,26.932z M25.495,27.635c0.803-0.657,1.538-1.394,2.195-2.197 l2.205,2.204c-0.67,0.794-1.403,1.528-2.197,2.197L25.495,27.635z M37.899,37.842c-0.295,0.294-0.685,0.456-1.103,0.456 c-0.412,0-0.805-0.162-1.095-0.456l-6.901-6.9c0.788-0.674,1.522-1.41,2.196-2.196l6.902,6.899 c0.294,0.293,0.453,0.684,0.453,1.098C38.353,37.158,38.193,37.548,37.899,37.842z"></path> </g> </g> <g> <g> <path fill="#E22718" d="M15.663,3.172c-6.855,0-12.434,5.578-12.434,12.434c0,6.855,5.579,12.434,12.434,12.434 s12.432-5.578,12.432-12.434C28.095,8.75,22.518,3.172,15.663,3.172z M15.663,26.485c-6,0-10.879-4.879-10.879-10.879 c0-5.999,4.879-10.879,10.879-10.879c6,0,10.878,4.88,10.878,10.879C26.541,21.606,21.663,26.485,15.663,26.485z"></path> </g> </g> <g> <g> <path fill="#E22718" d="M24.369,12.271c-0.666-1.741-1.832-3.23-3.37-4.306c-1.571-1.101-3.415-1.683-5.337-1.683 c-0.43,0-0.777,0.348-0.777,0.777c0,0.43,0.348,0.778,0.777,0.778c3.194,0,6.111,2.006,7.257,4.992 c0.119,0.309,0.413,0.499,0.726,0.499c0.092,0,0.188-0.017,0.279-0.052C24.325,13.121,24.525,12.67,24.369,12.271z"></path> </g> </g> </svg> 