<?xml version="1.0" encoding="UTF-8"?> <svg xmlns="http://www.w3.org/2000/svg" xmlns:xlink="http://www.w3.org/1999/xlink" version="1.1" id="Layer_1" x="0px" y="0px" width="39.234px" height="39.266px" viewBox="0 0 39.234 39.266" xml:space="preserve"> <g> <g> <g> <rect x="13.117" y="3.328" fill="#0C4A61" width="13.018" height="1.303"></rect> </g> </g> <g> <g> <path fill="#0C4A61" d="M32.32,24.484c0-1.257-1.022-2.279-2.279-2.279h-1.302v-9.113h-1.301v9.113h-1.628 c-1.257,0-2.277,1.022-2.277,2.279c0,0.637,0.265,1.213,0.688,1.627c-0.424,0.413-0.688,0.989-0.688,1.627 c0,0.439,0.129,0.846,0.347,1.193c-0.781,0.363-1.324,1.147-1.324,2.061c0,0.352,0.087,0.68,0.229,0.977h-5.11 c0-1.99-0.998-3.751-2.519-4.81c1.472-0.562,2.519-1.987,2.519-3.651c0-0.359-0.292-0.652-0.652-0.652h-5.207v-6.508h-1.302 v6.508c-1.077,0-1.953,0.877-1.953,1.953v14.32h1.302v-14.32c0-0.358,0.291-0.65,0.651-0.65h5.775 c-0.289,1.121-1.31,1.953-2.521,1.953h-1.953c-0.361,0-0.651,0.291-0.651,0.65s0.29,0.65,0.651,0.65 c2.512,0,4.556,2.044,4.556,4.557v0.651c0,0.36,0.291,0.651,0.651,0.651h3.81c-0.144,0.297-0.229,0.625-0.229,0.976 c0,1.257,1.022,2.278,2.28,2.278v2.604h1.299v-2.604h2.604h0.326c1.257,0,2.277-1.021,2.277-2.278 c0-0.354-0.088-0.687-0.233-0.985c1.213-0.049,2.187-1.044,2.187-2.27c0-0.438-0.13-0.845-0.347-1.193 c0.78-0.362,1.324-1.146,1.324-2.061c0-0.638-0.266-1.214-0.69-1.627C32.055,25.697,32.32,25.121,32.32,24.484z M27.112,35.224 h-0.326h-3.253h-0.65c-0.54,0-0.979-0.437-0.979-0.977c0-0.538,0.438-0.976,0.979-0.976h1.951h2.278 c0.538,0,0.977,0.438,0.977,0.976C28.089,34.787,27.65,35.224,27.112,35.224z M29.064,31.969h-1.952h-2.278 c-0.538,0-0.977-0.438-0.977-0.977c0-0.537,0.438-0.976,0.977-0.976h0.977h3.254c0.539,0,0.977,0.438,0.977,0.976 C30.041,31.53,29.604,31.969,29.064,31.969z M30.041,28.715h-0.977h-3.254c-0.539,0-0.977-0.438-0.977-0.977 c0-0.537,0.438-0.977,0.977-0.977h4.23c0.539,0,0.976,0.439,0.976,0.977C31.017,28.276,30.58,28.715,30.041,28.715z M30.041,25.459h-4.23c-0.539,0-0.977-0.438-0.977-0.975c0-0.539,0.438-0.977,0.977-0.977h4.23c0.539,0,0.976,0.438,0.976,0.977 C31.017,25.021,30.58,25.459,30.041,25.459z"></path> </g> </g> <g> <g> <path fill="#0C4A61" d="M9.86,8.359C9.848,8.172,9.754,8,9.605,7.887L8.928,7.374C8.765,6.552,8.045,5.932,7.183,5.932 c-0.971,0-1.764,0.791-1.777,1.767C4.886,7.607,4.389,7.408,3.944,7.108L3.717,6.955C3.518,6.821,3.26,6.805,3.047,6.919 C2.835,7.033,2.703,7.253,2.703,7.495v0.533c0,0.785,0.237,1.533,0.675,2.161L2.89,10.683c-0.185,0.186-0.238,0.465-0.138,0.707 c0.102,0.243,0.339,0.401,0.601,0.401h3.154c1.258,0,2.298-0.959,2.438-2.19l0.73-0.737C9.805,8.73,9.874,8.547,9.86,8.359z M7.848,8.86C7.727,8.981,7.66,9.146,7.66,9.317c0,0.646-0.518,1.172-1.153,1.172H4.852c0.103-0.237,0.059-0.523-0.134-0.718 C4.414,9.463,4.196,9.076,4.086,8.659C4.708,8.92,5.374,9.056,6.058,9.056c0.36,0,0.65-0.292,0.65-0.65V7.722 c0-0.269,0.214-0.488,0.475-0.488c0.262,0,0.477,0.219,0.477,0.488c0,0.204,0.095,0.396,0.256,0.52l0.311,0.234L7.848,8.86z"></path> </g> </g> <g> <g> <path fill="#0C4A61" d="M21.578,11.14V9.838h-1.952c-0.36,0-0.652,0.291-0.652,0.651v1.953h-1.3v1.302h1.3v2.604h1.304v-2.604 h1.3v-1.302h-1.3V11.14H21.578z"></path> </g> </g> <g> <g> <path fill="#0C4A61" d="M23.533,7.234H15.72c-1.076,0-1.952,0.876-1.952,1.953v7.811c0,1.077,0.876,1.953,1.952,1.953h7.813 c1.074,0,1.951-0.876,1.951-1.953V9.187C25.484,8.11,24.607,7.234,23.533,7.234z M24.182,16.998c0,0.359-0.29,0.651-0.648,0.651 H15.72c-0.359,0-0.65-0.292-0.65-0.651V9.187c0-0.359,0.291-0.651,0.65-0.651h7.813c0.358,0,0.648,0.292,0.648,0.651V16.998z"></path> </g> </g> <g> <g> <path fill="#0C4A61" d="M9.863,3.328H2.052c-1.077,0-1.953,0.876-1.953,1.953v7.812c0,1.077,0.876,1.952,1.953,1.952h7.811 c1.077,0,1.953-0.875,1.953-1.952V5.281C11.815,4.204,10.94,3.328,9.863,3.328z M10.514,13.092c0,0.359-0.292,0.651-0.651,0.651 H2.052c-0.36,0-0.651-0.292-0.651-0.651V5.281c0-0.358,0.291-0.65,0.651-0.65h7.811c0.359,0,0.651,0.292,0.651,0.65V13.092z"></path> </g> </g> <g> <g> <path fill="#0C4A61" d="M37.202,0.074H29.39c-1.076,0-1.951,0.876-1.951,1.953v7.811c0,1.077,0.875,1.953,1.951,1.953h7.813 c1.075,0,1.952-0.876,1.952-1.953V2.027C39.154,0.95,38.277,0.074,37.202,0.074z M37.852,9.838c0,0.358-0.291,0.651-0.649,0.651 H29.39c-0.359,0-0.65-0.292-0.65-0.651V6.583h1.368c0.302,1.483,1.616,2.604,3.188,2.604s2.887-1.12,3.188-2.604h1.367V9.838z M31.343,5.932c0-1.077,0.877-1.952,1.953-1.952s1.952,0.875,1.952,1.952c0,1.077-0.876,1.953-1.952,1.953 S31.343,7.009,31.343,5.932z M37.852,5.281h-1.367c-0.302-1.484-1.616-2.603-3.188-2.603s-2.887,1.119-3.188,2.603h-1.368V2.027 c0-0.36,0.291-0.651,0.65-0.651h7.813c0.358,0,0.649,0.292,0.649,0.651V5.281z"></path> </g> </g> <g> <g> <rect x="18.975" y="26.762" fill="#0C4A61" width="1.304" height="1.302"></rect> </g> </g> </g> </svg> 