<?xml version="1.0" encoding="UTF-8"?> <svg xmlns="http://www.w3.org/2000/svg" xmlns:xlink="http://www.w3.org/1999/xlink" version="1.1" id="Layer_1" x="0px" y="0px" width="84px" height="91px" viewBox="0 0 84 91" xml:space="preserve"> <g> <polygon fill="#DD0031" points="42.068,1.066 42.068,1.066 42.068,1.066 0.584,15.859 6.911,70.711 42.068,90.182 42.068,90.182 42.068,90.182 77.227,70.711 83.552,15.859 "></polygon> <polygon fill="#C3002F" points="42.068,1.066 42.068,10.959 42.068,10.913 42.068,56.052 42.068,56.052 42.068,90.182 42.068,90.182 77.227,70.711 83.552,15.859 "></polygon> <path fill="#FFFFFF" d="M42.068,10.913L16.134,69.063l0,0h9.67l0,0l5.213-13.012h22.011l5.212,13.012l0,0h9.672l0,0L42.068,10.913 L42.068,10.913L42.068,10.913L42.068,10.913L42.068,10.913z M49.644,48.032H34.493l7.576-18.226L49.644,48.032z"></path> </g> </svg> 